<svg width="24" height="24" viewBox="0 0 24 24" fill="none" xmlns="http://www.w3.org/2000/svg">
    <path fill-rule="evenodd" clip-rule="evenodd" d="M12.333 16.336a.667.667 0 0 1 1.335 0v2c0 .738-.598 1.335-1.335 1.335H5.33a1.334 1.334 0 0 1-1.334-1.334V5.662c0-.737.597-1.334 1.334-1.334h7.004c.737 0 1.335.597 1.335 1.334v2.002a.667.667 0 0 1-1.335 0V5.996A.334.334 0 0 0 12 5.662H5.663a.334.334 0 0 0-.334.334v12.007c0 .184.15.334.334.334H12c.184 0 .333-.15.333-.334v-1.667zm3.373-7.226 4.002 2.669a.667.667 0 0 1 0 1.11l-4.002 2.668a.667.667 0 0 1-.37.112.676.676 0 0 1-.668-.668v-1.667H8.664a1 1 0 1 1 0-2.002h6.004V9.665a.667.667 0 0 1 1.038-.555z" fill="#BDBDBD"/>
    <mask id="l9duqje9fa" style="mask-type:alpha" maskUnits="userSpaceOnUse" x="3" y="4" width="18" height="16">
        <path fill-rule="evenodd" clip-rule="evenodd" d="M12.333 16.336a.667.667 0 0 1 1.335 0v2c0 .738-.598 1.335-1.335 1.335H5.33a1.334 1.334 0 0 1-1.334-1.334V5.662c0-.737.597-1.334 1.334-1.334h7.004c.737 0 1.335.597 1.335 1.334v2.002a.667.667 0 0 1-1.335 0V5.996A.334.334 0 0 0 12 5.662H5.663a.334.334 0 0 0-.334.334v12.007c0 .184.15.334.334.334H12c.184 0 .333-.15.333-.334v-1.667zm3.373-7.226 4.002 2.669a.667.667 0 0 1 0 1.11l-4.002 2.668a.667.667 0 0 1-.37.112.676.676 0 0 1-.668-.668v-1.667H8.664a1 1 0 1 1 0-2.002h6.004V9.665a.667.667 0 0 1 1.038-.555z" fill="#fff"/>
    </mask>
</svg>
