<svg xmlns="http://www.w3.org/2000/svg" width="48" height="48" viewBox="0 0 48 48">
    <g fill="none" fill-rule="evenodd">
        <g>
            <g>
                <g>
                    <g>
                        <g>
                            <path d="M0 0L47.739 0 47.739 47.739 0 47.739z" transform="translate(-420 -406) translate(288 168) translate(0 47) translate(0 31) translate(132 160)"/>
                            <path fill="#025C95" fill-rule="nonzero" d="M41.705 29.575v5.938h6.034v3.959h-6.034v5.938h-4.022v-5.938h-6.034v-3.96h6.034v-5.937h4.022zm.016-23.753c1.102 0 1.995.88 1.995 1.965v18.506c-1.292-.45-2.652-.678-4.022-.677V9.78H7.515l.002 27.711 18.688-18.394c.716-.707 1.854-.778 2.655-.167l.187.169 7.132 7.027c-3.152.945-5.773 3.116-7.258 6.01-1.485 2.894-1.704 6.26-.606 9.316l-22.827-.002c-1.102 0-1.995-.88-1.995-1.965V7.787c.008-1.081.896-1.957 1.995-1.965h36.233zm-26.16 7.917c2.22 0 4.021 1.773 4.021 3.96 0 2.186-1.8 3.958-4.022 3.958-2.221 0-4.022-1.772-4.022-3.959 0-2.186 1.8-3.959 4.022-3.959z" transform="translate(-420 -406) translate(288 168) translate(0 47) translate(0 31) translate(132 160)"/>
                        </g>
                    </g>
                </g>
            </g>
        </g>
    </g>
</svg>
